<?xml version="1.0" encoding="UTF-8" standalone="no"?>
<svg width="268px" height="351px" viewBox="0 0 268 351" version="1.1" xmlns="http://www.w3.org/2000/svg" xmlns:xlink="http://www.w3.org/1999/xlink" xmlns:sketch="http://www.bohemiancoding.com/sketch/ns">
    <!-- Generator: Sketch 3.3.3 (12081) - http://www.bohemiancoding.com/sketch -->
    <title>Shape</title>
    <desc>Created with Sketch.</desc>
    <defs></defs>
    <g id="Page-1" stroke="none" stroke-width="1" fill="none" fill-rule="evenodd" sketch:type="MSPage">
        <g id="logo-small" sketch:type="MSLayerGroup" fill="#FFFFFF">
            <path d="M73.257,349.307 C48.09,349.307 28.089,350.975 2.588,350.975 C0.588,350.975 0.088,349.475 0.088,348.307 C0.088,347.141 0.921,345.807 2.588,345.641 C31.589,341.641 37.589,312.639 37.589,175.97 C37.589,39.299 31.589,10.298 2.588,6.298 C0.921,6.131 0.088,4.798 0.088,3.631 C0.088,2.464 0.588,0.964 2.588,0.964 C28.088,0.964 48.089,2.631 73.257,2.631 C114.591,2.631 155.593,0.964 199.427,0.964 C233.927,0.964 263.429,1.797 263.763,5.464 C266.095,28.465 267.263,54.132 267.263,81.133 C267.263,82.633 265.763,83.133 264.763,83.133 C263.763,83.133 262.429,82.633 261.763,81.133 C250.595,54.299 206.261,19.298 150.259,19.298 C108.091,19.298 107.591,41.132 107.591,175.97 C107.591,312.639 113.258,341.475 142.592,345.641 C144.259,345.975 144.925,347.141 144.925,348.307 C144.925,349.475 144.425,350.975 142.592,350.975 C116.925,350.975 98.424,349.307 73.257,349.307 L73.257,349.307 Z M183.26,224.637 C167.426,224.637 110.592,192.469 110.592,185.136 C110.592,182.636 160.26,177.97 183.26,177.97 C206.428,177.97 256.096,182.636 256.096,185.136 C256.096,192.637 199.262,224.637 183.26,224.637 L183.26,224.637 Z" id="Shape" sketch:type="MSShapeGroup"></path>
        </g>
    </g>
</svg>