<?xml version="1.0" encoding="UTF-8" standalone="no"?>
<svg width="462px" height="205px" viewBox="0 0 462 205" version="1.1" xmlns="http://www.w3.org/2000/svg" xmlns:xlink="http://www.w3.org/1999/xlink" xmlns:sketch="http://www.bohemiancoding.com/sketch/ns">
    <!-- Generator: Sketch 3.3.3 (12081) - http://www.bohemiancoding.com/sketch -->
    <title>logo</title>
    <desc>Created with Sketch.</desc>
    <defs></defs>
    <g id="Page-1" stroke="none" stroke-width="1" fill="none" fill-rule="evenodd" sketch:type="MSPage">
        <g id="logo" sketch:type="MSLayerGroup" fill="#30353B">
            <g id="Page-1" sketch:type="MSShapeGroup">
                <g id="logo">
                    <g id="FABLES_1_" transform="translate(0.000000, 74.000000)">
                        <g id="FABLES">
                            <g id="Group" transform="translate(0.000000, 9.000000)">
                                <path d="M37.617,96.043 C29.982,94.959 28.507,87.454 28.507,51.882 C28.507,16.787 28.637,11.104 39.612,11.104 C54.188,11.104 65.727,20.214 68.634,27.198 C68.807,27.589 69.155,27.719 69.415,27.719 C69.675,27.719 70.066,27.589 70.066,27.198 C70.066,20.17 69.762,13.49 69.155,7.503 C69.068,6.548 61.39,6.332 52.41,6.332 C41.001,6.332 30.329,6.766 19.571,6.766 C13.02,6.766 7.815,6.332 1.177,6.332 C0.656,6.332 0.526,6.723 0.526,7.026 C0.526,7.329 0.743,7.676 1.177,7.72 C8.725,8.761 10.287,16.309 10.287,51.882 C10.287,87.455 8.725,95.002 1.177,96.043 C0.743,96.087 0.526,96.434 0.526,96.737 C0.526,97.04 0.656,97.431 1.177,97.431 C7.814,97.431 13.02,96.997 19.571,96.997 C26.121,96.997 30.937,97.431 37.617,97.431 C38.094,97.431 38.224,97.04 38.224,96.737 C38.224,96.434 38.05,96.13 37.617,96.043 L37.617,96.043 L37.617,96.043 Z" id="Shape"></path>
                                <path d="M163.552,117.127 C149.193,116.996 138.391,88.842 128.414,59.083 C117.438,26.287 112.493,0.606 83.471,0.606 C79.393,0.606 75.012,0.866 74.361,0.996 C73.84,1.083 73.711,1.387 73.711,1.69 C73.711,1.993 73.928,2.34 74.361,2.384 C88.199,4.38 89.761,12.232 89.761,16.222 C89.761,20.821 80.174,46.632 77.267,55.091 C66.167,53.08 53.838,53.138 49.785,53.345 C44.64,53.608 35.986,54.285 31.204,55.16 C29.707,55.434 29.738,57.604 31.376,57.477 C36.217,57.102 47.048,57.29 59.501,58.289 C66.38,58.84 71.939,59.977 75.309,60.926 C68.933,79.527 63.119,94.571 56.14,96.041 C55.706,96.128 55.489,96.432 55.489,96.735 C55.489,97.038 55.619,97.429 56.14,97.429 C60.869,97.429 64.642,96.995 68.85,96.995 C72.754,96.995 78.09,97.429 83.469,97.429 C83.947,97.429 84.076,97.038 84.076,96.735 C84.076,96.432 83.903,96.128 83.469,96.041 C79.565,95.174 77.353,92.397 77.353,86.454 C77.353,83.938 79.999,74.351 83.296,63.289 C93.013,68.191 99.781,74.915 103.034,81.335 C105.463,81.162 110.799,74.134 110.799,71.185 C107.111,65.025 97.438,59.733 85.291,56.696 C90.063,41.079 95.399,24.768 96.18,22.121 C109.802,52.532 114.356,118.296 163.55,118.513 C164.027,118.513 164.157,118.122 164.157,117.819 C164.157,117.516 163.942,117.127 163.552,117.127 L163.552,117.127 L163.552,117.127 Z" id="Shape"></path>
                            </g>
                            <path d="M238.766,80.317 C238.766,97.496 216.859,108.645 189.269,108.645 C173.652,108.645 158.468,106.345 153.002,103.092 C152.611,102.874 152.439,102.657 152.439,102.354 C152.439,102.051 152.656,101.747 153.089,101.747 C153.436,101.747 154.651,101.834 155.388,101.834 C165.193,101.834 168.446,95.761 168.446,60.883 C168.446,30.516 166.884,22.968 159.337,21.927 C158.903,21.884 158.686,21.537 158.686,21.233 C158.686,20.929 158.817,20.539 159.337,20.539 C171.267,20.539 183.283,15.333 195.776,15.333 C196.254,15.333 196.383,15.724 196.383,16.027 C196.383,16.33 196.209,16.634 195.776,16.721 C188.184,17.805 186.667,25.223 186.667,60.883 C186.667,98.321 187.144,102.182 200.028,102.182 C210.178,102.182 217.466,93.462 217.466,80.578 C217.466,67.087 205.19,59.19 195.212,59.19 C194.518,59.19 194.04,59.104 194.04,58.497 C194.04,58.019 194.647,57.933 195.038,57.933 C203.41,57.933 216.814,49.257 216.814,35.679 C216.814,14.466 195.211,5.92 175.386,5.92 C159.856,5.92 144.976,10.735 144.976,28.087 C144.976,38.238 152.958,43.14 152.958,43.357 C152.958,43.618 152.741,43.792 152.567,43.792 C138.728,43.792 124.153,36.33 124.153,25.225 C124.153,9.695 142.329,0.021 171.568,0.021 C204.19,0.021 239.155,14.554 239.155,34.899 C239.155,45.918 225.446,54.594 209.743,57.76 C222.975,58.973 238.766,69.645 238.766,80.317 L238.766,80.317 L238.766,80.317 Z" id="Shape"></path>
                            <path d="M336.412,130.421 C303.615,130.421 289.039,106.432 243.057,106.432 C242.536,106.432 242.406,106.041 242.406,105.738 C242.406,105.435 242.623,105.088 243.057,105.044 C250.605,104.003 252.166,96.455 252.166,60.883 C252.166,25.311 250.604,17.762 243.057,16.721 C242.622,16.678 242.406,16.331 242.406,16.027 C242.406,15.723 242.536,15.333 243.057,15.333 C249.694,15.333 254.899,15.767 261.45,15.767 C268.001,15.767 272.816,15.333 279.497,15.333 C279.974,15.333 280.104,15.724 280.104,16.027 C280.104,16.33 279.93,16.634 279.497,16.721 C271.862,17.805 270.387,25.31 270.387,60.883 C270.387,96.456 274.247,99.102 278.63,102.962 C287.652,110.944 312.206,119.62 343.441,119.62 C355.761,119.62 366.129,115.239 366.996,115.239 C367.127,115.239 367.17,115.325 367.17,115.412 C367.168,117.971 354.893,130.421 336.412,130.421 L336.412,130.421 L336.412,130.421 Z" id="Shape"></path>
                            <path d="M347.515,106.389 C336.931,106.389 326.39,105.998 314.677,105.998 C308.126,105.998 302.919,106.432 296.282,106.432 C295.762,106.432 295.632,106.041 295.632,105.738 C295.632,105.435 295.849,105.088 296.282,105.044 C303.831,104.003 305.393,96.455 305.393,60.883 C305.393,25.311 303.831,17.762 296.282,16.721 C295.848,16.678 295.632,16.331 295.632,16.027 C295.632,15.723 295.763,15.333 296.282,15.333 C302.919,15.333 308.126,15.767 314.677,15.767 C320.663,15.767 326.693,15.333 347.515,15.333 C356.495,15.333 364.173,15.55 364.261,16.504 C364.868,22.49 365.171,29.171 365.171,36.199 C365.171,36.59 364.78,36.72 364.521,36.72 C364.262,36.72 363.871,36.59 363.74,36.199 C361.267,30.169 349.728,20.105 335.586,20.105 C323.613,20.105 323.613,24.877 323.613,60.883 C323.613,96.455 323.613,101.617 335.586,101.617 C349.729,101.617 361.268,91.553 363.74,85.523 C363.871,85.132 364.261,85.002 364.521,85.002 C364.781,85.002 365.171,85.132 365.171,85.523 C365.171,92.55 364.868,99.231 364.261,105.217 C364.173,106.171 356.495,106.389 347.515,106.389 L347.515,106.389 L347.515,106.389 Z M371.591,67.389 C368.989,68.213 364.521,69.428 356.236,69.428 C336.974,69.428 324.48,65.09 324.437,62.704 C324.394,60.795 332.289,54.851 335.976,54.851 C337.408,54.851 344.566,62.92 371.722,66.564 C371.765,66.564 372.243,66.781 372.243,67.042 C372.243,67.346 371.765,67.346 371.591,67.389 L371.591,67.389 L371.591,67.389 Z" id="Shape"></path>
                            <path d="M405.861,124.392 C385.125,124.392 371.763,115.369 371.763,100.316 C371.763,86.52 386.728,73.766 403.865,73.766 C404.342,73.766 404.689,73.94 404.689,74.46 C404.689,76.325 389.375,77.714 389.375,96.497 C389.375,108.817 399.439,116.843 412.584,116.843 C428.809,116.843 442.734,105.043 442.734,91.943 C442.734,73.636 384.646,66.522 384.646,47.651 C384.646,32.859 408.16,13.251 432.019,13.251 C452.06,13.251 455.878,20.799 455.878,24.009 C455.878,28.824 440.997,42.272 436.573,42.272 C436.53,42.272 436.399,42.185 436.399,42.055 C436.399,41.707 439.045,39.062 439.045,34.767 C439.045,27.262 432.191,20.581 424.338,20.581 C413.104,20.581 403.039,28.563 403.039,35.504 C403.039,51.686 461.473,55.373 461.473,81.531 C461.475,98.927 442.213,124.392 405.861,124.392 L405.861,124.392 L405.861,124.392 Z" id="Shape"></path>
                        </g>
                    </g>
                    <g id="FULL_ON" transform="translate(95.000000, 0.000000)">
                        <g id="Group">
                            <path d="M12.149,60.273 C7.983,60.273 4.673,60.549 0.452,60.549 C0.121,60.549 0.038,60.301 0.038,60.108 C0.038,59.915 0.176,59.694 0.452,59.667 C5.252,59.005 6.245,54.205 6.245,31.583 C6.245,8.961 5.252,4.161 0.452,3.499 C0.176,3.472 0.038,3.251 0.038,3.058 C0.038,2.865 0.121,2.617 0.452,2.617 C4.673,2.617 7.984,2.893 12.149,2.893 C18.991,2.893 25.777,2.617 33.033,2.617 C38.743,2.617 43.627,2.755 43.681,3.362 C44.068,7.169 44.261,11.418 44.261,15.886 C44.261,16.135 44.012,16.217 43.847,16.217 C43.681,16.217 43.46,16.134 43.35,15.886 C41.502,11.445 34.163,5.651 24.894,5.651 C17.915,5.651 17.832,9.265 17.832,31.584 C17.832,54.206 18.77,58.979 23.625,59.668 C23.901,59.723 24.011,59.916 24.011,60.109 C24.011,60.302 23.928,60.55 23.625,60.55 C19.377,60.549 16.314,60.273 12.149,60.273 L12.149,60.273 L12.149,60.273 Z M30.357,39.637 C27.736,39.637 18.329,34.312 18.329,33.098 C18.329,32.684 26.55,31.912 30.357,31.912 C34.191,31.912 42.413,32.684 42.413,33.098 C42.413,34.34 33.005,39.637 30.357,39.637 L30.357,39.637 L30.357,39.637 Z" id="Shape"></path>
                            <path d="M60.647,61.238 C52.481,61.238 48.094,57.183 48.094,50.065 C48.094,47.637 48.342,43.058 48.342,39.665 C48.342,28.022 47.073,26.009 44.839,26.009 C43.901,26.009 43.294,26.23 43.018,26.23 C42.77,26.23 42.549,26.037 42.549,25.733 C42.549,25.429 42.714,25.264 43.018,25.099 C46.301,23.278 57.501,19.471 60.288,19.471 C60.674,19.471 60.84,19.636 60.84,19.995 C60.84,21.126 59.929,26.12 59.929,39.693 C59.929,52.246 61.584,54.425 66.219,54.425 C70.937,54.425 74.027,50.259 74.027,41.679 C74.027,28.354 72.868,26.009 70.551,26.009 C69.613,26.009 69.006,26.23 68.758,26.23 C68.483,26.23 68.289,26.037 68.289,25.733 C68.289,25.429 68.427,25.264 68.758,25.099 C71.986,23.278 83.242,19.471 86.001,19.471 C86.387,19.471 86.553,19.636 86.553,19.995 C86.553,21.126 85.642,26.257 85.642,40.3 C85.642,55.584 87.132,59.088 91.27,59.667 C91.546,59.722 91.657,59.915 91.657,60.108 C91.657,60.301 91.574,60.549 91.27,60.549 C87.959,60.549 85.228,60.273 82.856,60.273 C80.732,60.273 78.084,60.549 75.931,60.549 C75.269,60.549 74.745,58.59 74.414,53.542 C71.71,57.735 66.965,61.238 60.647,61.238 L60.647,61.238 L60.647,61.238 Z" id="Shape"></path>
                            <path d="M104.593,60.273 C100.51,60.273 97.282,60.549 93.144,60.549 C92.84,60.549 92.73,60.301 92.73,60.108 C92.73,59.915 92.896,59.694 93.144,59.667 C97.806,59.032 98.827,54.425 98.827,32.686 C98.827,10.367 98.027,6.561 95.158,6.561 C94.22,6.561 93.586,6.782 93.31,6.782 C93.089,6.782 92.896,6.589 92.896,6.313 C92.896,6.01 93.034,5.844 93.31,5.651 C96.593,3.83 107.794,0.023 110.58,0.023 C110.994,0.023 111.159,0.189 111.159,0.575 C111.159,1.982 110.194,9.845 110.194,32.659 C110.194,54.426 111.132,59.006 115.85,59.668 C116.125,59.723 116.236,59.916 116.236,60.109 C116.236,60.302 116.153,60.55 115.85,60.55 C111.683,60.549 108.703,60.273 104.593,60.273 L104.593,60.273 L104.593,60.273 Z" id="Shape"></path>
                            <path d="M129.172,60.273 C125.089,60.273 121.861,60.549 117.723,60.549 C117.419,60.549 117.309,60.301 117.309,60.108 C117.309,59.915 117.475,59.694 117.723,59.667 C122.385,59.032 123.406,54.425 123.406,32.686 C123.406,10.367 122.606,6.561 119.737,6.561 C118.799,6.561 118.165,6.782 117.889,6.782 C117.668,6.782 117.475,6.589 117.475,6.313 C117.475,6.01 117.613,5.844 117.889,5.651 C121.172,3.83 132.373,0.023 135.159,0.023 C135.573,0.023 135.738,0.189 135.738,0.575 C135.738,1.982 134.773,9.845 134.773,32.659 C134.773,54.426 135.711,59.006 140.429,59.668 C140.704,59.723 140.815,59.916 140.815,60.109 C140.815,60.302 140.732,60.55 140.429,60.55 C136.262,60.549 133.282,60.273 129.172,60.273 L129.172,60.273 L129.172,60.273 Z" id="Shape"></path>
                            <path d="M181.807,62.204 C168.206,62.204 156.068,53.541 156.068,33.871 C156.068,15.001 171.959,0.959 192.263,0.959 C205.754,0.959 217.837,9.429 217.837,29.264 C217.837,48.162 202.36,62.204 181.807,62.204 L181.807,62.204 L181.807,62.204 Z M203.905,34.782 C203.905,22.257 198.194,5.704 184.896,5.704 C173.144,5.704 170.275,19.25 170.275,28.574 C170.275,41.127 175.903,57.596 189.201,57.596 C201.036,57.597 203.905,44.327 203.905,34.782 L203.905,34.782 L203.905,34.782 Z" id="Shape"></path>
                            <path d="M251.63,19.746 C259.796,19.746 264.183,23.746 264.183,30.892 C264.183,33.43 263.962,38.313 263.962,41.789 C263.962,54.011 265.976,59.031 269.176,59.666 C269.452,59.721 269.563,59.914 269.563,60.107 C269.563,60.3 269.48,60.548 269.176,60.548 C266.252,60.548 262.362,60.272 259.852,60.272 C257.341,60.272 254.141,60.548 251.686,60.548 C251.272,60.548 251.051,60.382 251.051,59.886 C251.051,59.334 251.934,52.907 251.934,41.264 C251.934,28.712 249.865,26.505 245.644,26.505 C239.933,26.505 238.471,34.064 238.471,40.299 C238.471,55.583 239.989,58.948 244.099,59.666 C244.375,59.721 244.485,59.914 244.485,60.107 C244.485,60.3 244.403,60.548 244.099,60.548 C239.933,60.548 236.953,60.272 232.843,60.272 C228.76,60.272 225.532,60.548 221.394,60.548 C221.09,60.548 220.981,60.3 220.981,60.107 C220.981,59.914 221.146,59.693 221.394,59.666 C225.422,59.142 226.995,55.61 226.995,40.603 C226.995,28.437 225.698,26.009 223.409,26.009 C222.471,26.009 221.836,26.23 221.56,26.23 C221.339,26.23 221.146,26.037 221.146,25.733 C221.146,25.429 221.284,25.264 221.56,25.099 C224.842,23.278 236.043,19.471 238.83,19.471 C239.244,19.471 239.409,19.636 239.409,19.995 C239.409,20.602 239.134,22.368 238.858,26.009 C241.671,22.478 246.058,19.746 251.63,19.746 L251.63,19.746 L251.63,19.746 Z" id="Shape"></path>
                        </g>
                    </g>
                </g>
            </g>
        </g>
    </g>
</svg>